<mxfile modified="2021-07-30T00:44:53.321Z" host="app.diagrams.net" agent="5.0 (Windows NT 10.0; Win64; x64) AppleWebKit/537.36 (KHTML, like Gecko) Chrome/92.0.4515.107 Safari/537.36" etag="EAqahfjygCuiT_J7QtWi" version="14.9.3" type="github">
  <diagram id="f106602c-feb2-e66a-4537-3a34d633f6aa" name="Page-1">
    <mxGraphModel dx="1422" dy="778" grid="1" gridSize="10" guides="1" tooltips="1" connect="1" arrows="1" fold="1" page="1" pageScale="1" pageWidth="1169" pageHeight="827" background="#ffffff" math="0" shadow="0">
      <root>
        <mxCell id="0" />
        <mxCell id="1" parent="0" />
        <mxCell id="14" value="" style="fillColor=#F6F6F6;strokeColor=none;shadow=0;gradientColor=none;fontSize=14;align=left;spacing=10;fontColor=#717171;9E9E9E;verticalAlign=top;spacingTop=-4;fontStyle=0;spacingLeft=40;html=1;" parent="1" vertex="1">
          <mxGeometry x="120" y="90" width="340" height="570" as="geometry" />
        </mxCell>
        <mxCell id="711" value="库存管理" style="rounded=1;absoluteArcSize=1;arcSize=2;html=1;strokeColor=none;gradientColor=none;shadow=0;dashed=0;strokeColor=none;fontSize=12;fontColor=#9E9E9E;align=left;verticalAlign=top;spacing=10;spacingTop=-4;fillColor=#E1F5FE;" parent="1" vertex="1">
          <mxGeometry x="135" y="268" width="310" height="160" as="geometry" />
        </mxCell>
        <mxCell id="2" value="低代码框架" style="fillColor=#4DA1F5;strokeColor=none;shadow=1;gradientColor=none;fontSize=14;align=left;spacingLeft=50;fontColor=#ffffff;html=1;" parent="1" vertex="1">
          <mxGeometry x="120" y="40" width="1360" height="50" as="geometry" />
        </mxCell>
        <mxCell id="9H8mp4o10f4AkLjiTtre-744" value="" style="html=1;verticalLabelPosition=bottom;align=center;labelBackgroundColor=#ffffff;verticalAlign=top;strokeWidth=2;strokeColor=#0080F0;shadow=0;dashed=0;shape=mxgraph.ios7.icons.help;" parent="1" vertex="1">
          <mxGeometry x="170" y="950" width="40" height="40" as="geometry" />
        </mxCell>
        <mxCell id="nr5fOKlL_KogjnnYkvEE-763" value="" style="fillColor=#F6F6F6;strokeColor=none;shadow=0;gradientColor=none;fontSize=14;align=left;spacing=10;fontColor=#717171;9E9E9E;verticalAlign=top;spacingTop=-4;fontStyle=0;spacingLeft=40;html=1;" parent="1" vertex="1">
          <mxGeometry x="460" y="90" width="330" height="570" as="geometry" />
        </mxCell>
        <mxCell id="707" value="生产管理" style="rounded=1;absoluteArcSize=1;arcSize=2;html=1;strokeColor=none;gradientColor=none;shadow=0;dashed=0;strokeColor=none;fontSize=12;fontColor=#9E9E9E;align=left;verticalAlign=top;spacing=10;spacingTop=-4;fillColor=#F1F8E9;" parent="1" vertex="1">
          <mxGeometry x="500" y="264" width="280" height="166" as="geometry" />
        </mxCell>
        <mxCell id="nr5fOKlL_KogjnnYkvEE-764" value="" style="fillColor=#F6F6F6;strokeColor=none;shadow=0;gradientColor=none;fontSize=14;align=left;spacing=10;fontColor=#717171;9E9E9E;verticalAlign=top;spacingTop=-4;fontStyle=0;spacingLeft=40;html=1;" parent="1" vertex="1">
          <mxGeometry x="790" y="90" width="690" height="570" as="geometry" />
        </mxCell>
        <mxCell id="nr5fOKlL_KogjnnYkvEE-765" value="" style="fillColor=#F6F6F6;strokeColor=none;shadow=0;gradientColor=none;fontSize=14;align=left;spacing=10;fontColor=#717171;9E9E9E;verticalAlign=top;spacingTop=-4;fontStyle=0;spacingLeft=40;html=1;" parent="1" vertex="1">
          <mxGeometry x="120" y="700" width="1360" height="310" as="geometry" />
        </mxCell>
        <mxCell id="9H8mp4o10f4AkLjiTtre-723" value="" style="html=1;dashed=0;whitespace=wrap;fillColor=#95cc01;strokeColor=#ffffff;points=[[0.005,0.63,0],[0.1,0.2,0],[0.9,0.2,0],[0.5,0,0],[0.995,0.63,0],[0.72,0.99,0],[0.5,1,0],[0.28,0.99,0]];shape=mxgraph.kubernetes.icon;prIcon=node" parent="1" vertex="1">
          <mxGeometry x="340" y="300" width="50" height="48" as="geometry" />
        </mxCell>
        <mxCell id="nr5fOKlL_KogjnnYkvEE-767" value="" style="html=1;dashed=0;whitespace=wrap;fillColor=#95cc01;strokeColor=#ffffff;points=[[0.005,0.63,0],[0.1,0.2,0],[0.9,0.2,0],[0.5,0,0],[0.995,0.63,0],[0.72,0.99,0],[0.5,1,0],[0.28,0.99,0]];shape=mxgraph.kubernetes.icon;prIcon=node" parent="1" vertex="1">
          <mxGeometry x="240" y="340" width="50" height="48" as="geometry" />
        </mxCell>
        <mxCell id="nr5fOKlL_KogjnnYkvEE-776" style="edgeStyle=orthogonalEdgeStyle;rounded=0;orthogonalLoop=1;jettySize=auto;html=1;fontColor=#6666FF;strokeColor=#000000;strokeWidth=2;" parent="1" source="711" target="bvs6TWtCchfrQEZ52sJV-724" edge="1">
          <mxGeometry relative="1" as="geometry">
            <mxPoint x="1320" y="428" as="targetPoint" />
            <Array as="points">
              <mxPoint x="290" y="470" />
              <mxPoint x="740" y="470" />
            </Array>
          </mxGeometry>
        </mxCell>
        <mxCell id="nr5fOKlL_KogjnnYkvEE-780" value="终端" style="rounded=1;absoluteArcSize=1;arcSize=2;html=1;strokeColor=#6c8ebf;shadow=0;dashed=0;strokeColor=none;fontSize=12;align=left;verticalAlign=top;spacing=10;spacingTop=-4;fillColor=#dae8fc;" parent="1" vertex="1">
          <mxGeometry x="120" y="90" width="1360" height="100" as="geometry" />
        </mxCell>
        <mxCell id="nr5fOKlL_KogjnnYkvEE-779" value="" style="verticalLabelPosition=bottom;html=1;verticalAlign=top;align=center;strokeColor=none;fillColor=#00BEF2;shape=mxgraph.azure.mobile;pointerEvents=1;fontColor=#6666FF;" parent="1" vertex="1">
          <mxGeometry x="247.5" y="125" width="35" height="50" as="geometry" />
        </mxCell>
        <mxCell id="nr5fOKlL_KogjnnYkvEE-778" value="" style="verticalLabelPosition=bottom;html=1;verticalAlign=top;align=center;strokeColor=none;fillColor=#00BEF2;shape=mxgraph.azure.mobile;pointerEvents=1;fontColor=#6666FF;" parent="1" vertex="1">
          <mxGeometry x="592.5" y="115" width="35" height="50" as="geometry" />
        </mxCell>
        <mxCell id="nr5fOKlL_KogjnnYkvEE-789" value="电商平台" style="rounded=1;absoluteArcSize=1;arcSize=2;html=1;strokeColor=#6c8ebf;shadow=0;dashed=0;strokeColor=none;fontSize=12;align=left;verticalAlign=top;spacing=10;spacingTop=-4;fillColor=#dae8fc;" parent="1" vertex="1">
          <mxGeometry x="850" y="271" width="290" height="159" as="geometry" />
        </mxCell>
        <mxCell id="nr5fOKlL_KogjnnYkvEE-791" value="" style="outlineConnect=0;fontColor=#232F3E;gradientColor=none;fillColor=#116D5B;strokeColor=none;dashed=0;verticalLabelPosition=bottom;verticalAlign=top;align=center;html=1;fontSize=12;fontStyle=0;aspect=fixed;pointerEvents=1;shape=mxgraph.aws4.sagemaker_model;" parent="1" vertex="1">
          <mxGeometry x="1370" y="790" width="78" height="78" as="geometry" />
        </mxCell>
        <mxCell id="bvs6TWtCchfrQEZ52sJV-711" value="商品类别管理" style="text;html=1;resizable=0;autosize=1;align=center;verticalAlign=middle;points=[];fillColor=none;strokeColor=none;rounded=0;" vertex="1" parent="1">
          <mxGeometry x="220" y="394" width="90" height="20" as="geometry" />
        </mxCell>
        <mxCell id="bvs6TWtCchfrQEZ52sJV-712" value="进库、入库管理" style="text;html=1;resizable=0;autosize=1;align=center;verticalAlign=middle;points=[];fillColor=none;strokeColor=none;rounded=0;" vertex="1" parent="1">
          <mxGeometry x="315" y="354" width="100" height="20" as="geometry" />
        </mxCell>
        <mxCell id="bvs6TWtCchfrQEZ52sJV-713" value="" style="dashed=0;outlineConnect=0;html=1;align=center;labelPosition=center;verticalLabelPosition=bottom;verticalAlign=top;shape=mxgraph.weblogos.chrome" vertex="1" parent="1">
          <mxGeometry x="190" y="120" width="50" height="55" as="geometry" />
        </mxCell>
        <mxCell id="bvs6TWtCchfrQEZ52sJV-714" value="" style="html=1;dashed=0;whitespace=wrap;fillColor=#95cc01;strokeColor=#ffffff;points=[[0.005,0.63,0],[0.1,0.2,0],[0.9,0.2,0],[0.5,0,0],[0.995,0.63,0],[0.72,0.99,0],[0.5,1,0],[0.28,0.99,0]];shape=mxgraph.kubernetes.icon;prIcon=node" vertex="1" parent="1">
          <mxGeometry x="585" y="324" width="50" height="48" as="geometry" />
        </mxCell>
        <mxCell id="bvs6TWtCchfrQEZ52sJV-715" value="排班系统" style="text;html=1;resizable=0;autosize=1;align=center;verticalAlign=middle;points=[];fillColor=none;strokeColor=none;rounded=0;" vertex="1" parent="1">
          <mxGeometry x="580" y="381" width="60" height="20" as="geometry" />
        </mxCell>
        <mxCell id="bvs6TWtCchfrQEZ52sJV-716" value="" style="html=1;dashed=0;whitespace=wrap;fillColor=#95cc01;strokeColor=#ffffff;points=[[0.005,0.63,0],[0.1,0.2,0],[0.9,0.2,0],[0.5,0,0],[0.995,0.63,0],[0.72,0.99,0],[0.5,1,0],[0.28,0.99,0]];shape=mxgraph.kubernetes.icon;prIcon=node" vertex="1" parent="1">
          <mxGeometry x="970" y="323" width="50" height="48" as="geometry" />
        </mxCell>
        <mxCell id="bvs6TWtCchfrQEZ52sJV-717" value="BlinglBling" style="text;html=1;resizable=0;autosize=1;align=center;verticalAlign=middle;points=[];fillColor=none;strokeColor=none;rounded=0;" vertex="1" parent="1">
          <mxGeometry x="965" y="381" width="70" height="20" as="geometry" />
        </mxCell>
        <mxCell id="bvs6TWtCchfrQEZ52sJV-718" value="" style="verticalLabelPosition=bottom;html=1;verticalAlign=top;align=center;strokeColor=none;fillColor=#00BEF2;shape=mxgraph.azure.mobile;pointerEvents=1;fontColor=#6666FF;" vertex="1" parent="1">
          <mxGeometry x="1000" y="120" width="35" height="50" as="geometry" />
        </mxCell>
        <mxCell id="bvs6TWtCchfrQEZ52sJV-719" value="" style="dashed=0;outlineConnect=0;html=1;align=center;labelPosition=center;verticalLabelPosition=bottom;verticalAlign=top;shape=mxgraph.weblogos.chrome" vertex="1" parent="1">
          <mxGeometry x="942.5" y="115" width="50" height="55" as="geometry" />
        </mxCell>
        <mxCell id="bvs6TWtCchfrQEZ52sJV-723" value="低代码BI" style="fillColor=#4DA1F5;strokeColor=none;shadow=1;gradientColor=none;fontSize=14;align=left;spacingLeft=50;fontColor=#ffffff;html=1;" vertex="1" parent="1">
          <mxGeometry x="120" y="660" width="1360" height="50" as="geometry" />
        </mxCell>
        <mxCell id="bvs6TWtCchfrQEZ52sJV-724" value="Kafka" style="points=[[0,0,0],[0.25,0,0],[0.5,0,0],[0.75,0,0],[1,0,0],[0,1,0],[0.25,1,0],[0.5,1,0],[0.75,1,0],[1,1,0],[0,0.25,0],[0,0.5,0],[0,0.75,0],[1,0.25,0],[1,0.5,0],[1,0.75,0]];outlineConnect=0;fontColor=#232F3E;gradientColor=#945DF2;gradientDirection=north;fillColor=#5A30B5;strokeColor=#ffffff;dashed=0;verticalLabelPosition=bottom;verticalAlign=top;align=center;html=1;fontSize=12;fontStyle=0;aspect=fixed;shape=mxgraph.aws4.resourceIcon;resIcon=mxgraph.aws4.managed_streaming_for_kafka;" vertex="1" parent="1">
          <mxGeometry x="712" y="530" width="78" height="78" as="geometry" />
        </mxCell>
        <mxCell id="bvs6TWtCchfrQEZ52sJV-726" value="电商平台" style="rounded=1;absoluteArcSize=1;arcSize=2;html=1;strokeColor=#6c8ebf;shadow=0;dashed=0;strokeColor=none;fontSize=12;align=left;verticalAlign=top;spacing=10;spacingTop=-4;fillColor=#dae8fc;" vertex="1" parent="1">
          <mxGeometry x="1169" y="271" width="290" height="159" as="geometry" />
        </mxCell>
        <mxCell id="bvs6TWtCchfrQEZ52sJV-727" value="" style="html=1;dashed=0;whitespace=wrap;fillColor=#95cc01;strokeColor=#ffffff;points=[[0.005,0.63,0],[0.1,0.2,0],[0.9,0.2,0],[0.5,0,0],[0.995,0.63,0],[0.72,0.99,0],[0.5,1,0],[0.28,0.99,0]];shape=mxgraph.kubernetes.icon;prIcon=node" vertex="1" parent="1">
          <mxGeometry x="1310" y="326.5" width="50" height="48" as="geometry" />
        </mxCell>
        <mxCell id="bvs6TWtCchfrQEZ52sJV-728" value="玩物丧志" style="text;html=1;resizable=0;autosize=1;align=center;verticalAlign=middle;points=[];fillColor=none;strokeColor=none;rounded=0;" vertex="1" parent="1">
          <mxGeometry x="1305" y="381" width="60" height="20" as="geometry" />
        </mxCell>
        <mxCell id="bvs6TWtCchfrQEZ52sJV-729" value="" style="shape=image;html=1;verticalAlign=top;verticalLabelPosition=bottom;labelBackgroundColor=#ffffff;imageAspect=0;aspect=fixed;image=https://cdn2.iconfinder.com/data/icons/social-media-applications/64/social_media_applications_9-wechat-128.png" vertex="1" parent="1">
          <mxGeometry x="1301" y="118" width="59" height="59" as="geometry" />
        </mxCell>
        <mxCell id="bvs6TWtCchfrQEZ52sJV-730" style="edgeStyle=orthogonalEdgeStyle;rounded=0;orthogonalLoop=1;jettySize=auto;html=1;fontColor=#6666FF;strokeColor=#000000;strokeWidth=2;entryX=0.25;entryY=0;entryDx=0;entryDy=0;entryPerimeter=0;" edge="1" parent="1" source="707" target="bvs6TWtCchfrQEZ52sJV-724">
          <mxGeometry relative="1" as="geometry">
            <mxPoint x="300" y="438" as="sourcePoint" />
            <mxPoint x="730" y="520" as="targetPoint" />
            <Array as="points">
              <mxPoint x="670" y="470" />
              <mxPoint x="740" y="470" />
              <mxPoint x="740" y="530" />
            </Array>
          </mxGeometry>
        </mxCell>
        <mxCell id="bvs6TWtCchfrQEZ52sJV-731" style="edgeStyle=orthogonalEdgeStyle;rounded=0;orthogonalLoop=1;jettySize=auto;html=1;fontColor=#6666FF;strokeColor=#000000;strokeWidth=2;" edge="1" parent="1" source="nr5fOKlL_KogjnnYkvEE-789">
          <mxGeometry relative="1" as="geometry">
            <mxPoint x="300" y="438" as="sourcePoint" />
            <mxPoint x="740" y="540" as="targetPoint" />
            <Array as="points">
              <mxPoint x="1000" y="470" />
              <mxPoint x="740" y="470" />
            </Array>
          </mxGeometry>
        </mxCell>
        <mxCell id="bvs6TWtCchfrQEZ52sJV-732" style="edgeStyle=orthogonalEdgeStyle;rounded=0;orthogonalLoop=1;jettySize=auto;html=1;fontColor=#6666FF;strokeColor=#000000;strokeWidth=2;exitX=0.538;exitY=0.994;exitDx=0;exitDy=0;exitPerimeter=0;" edge="1" parent="1" source="bvs6TWtCchfrQEZ52sJV-726">
          <mxGeometry relative="1" as="geometry">
            <mxPoint x="1010" y="440" as="sourcePoint" />
            <mxPoint x="740" y="530" as="targetPoint" />
            <Array as="points">
              <mxPoint x="1325" y="470" />
              <mxPoint x="740" y="470" />
            </Array>
          </mxGeometry>
        </mxCell>
        <mxCell id="bvs6TWtCchfrQEZ52sJV-733" value="" style="shape=image;verticalLabelPosition=bottom;verticalAlign=top;imageAspect=0;aspect=fixed;image=data:image/png,iVBORw0KGgoAAAANSUhEUgAAAUsAAACYCAMAAABatDuZAAAA8FBMVEUAAAD///9bk/w04/3n5+cpKSmvr6+AgID4+PjBwcFRUVHv7+9dlv9emP816P815v86OjqXl5c26v/MzMwdHR3b29vV1dVBQUGgoKC6urrh4eExMTHt7e1gm/84ODimpqZ8fHxaWlqJiYllZWVtbW0jIyMFCA4ZKUYODg5ViuwYGBhgYGCPj49Me9NCa7hLS0srRXcjOWI4W5wPGSsorsITVF4w0ekfiZkvTYRSheQKER0il6gbeYdAZ7EKLTIGHB8THzYptcoYbHkNOUAQSFEeMFQzU48txt0EFBZIdMcdgpESUFoilaYIJysYJkEoscXPNJgbAAAK40lEQVR4nO2ca0PaSBSGCddAwjWGuxAQFFREqNpabWtdW2u32/3//2aTuYSZyYmihrR0z/NJTxKYeTOZOZcJiQSCIAiCIAiCIAiCIAiCIAiCIAiCIAiCIAiCIAiCIAiCIAiCIAiCIM/nzc3+r27Cb85OJWj7eHV2HTCeTJOzRQwN2l6ymmYMFNt5qVaqfVaMs2Iyae6imOEMNZf0jmy8KKdSqdqtZFu4UrpizmJs27bR8rTUlIFZc6VMlc4k25JomZy+ibFxW0bfk1JvyEZPylTtrWR7R7W8fB9j47aMnuFq2VeMV7VyqpT6KNlukqYrZfFDfE3bPibN1l7A+PYi9fkvxbZIFovFh3ga9Ufx7VPQ9v703UH8LUGQ9dnHCOgJGjtB2/XVlTpzJt5dFpMnuKA/wkjXNEtR85/7WqlUlr2jxNJ0l/Ti9Ca2lm0dc+K152Xjmee2l1N3ou099TTRPQqnSbTUZGMKcNuZ156cxtm67SL7iJY/RNtXE7V8gj0iZVs23pc8Lcvnou1ml0hpot8ejveQp+ey7S5VKpdrcpYj8eANTDP5Jb6mbR+DodNRbXdnF/ffFdv+iavkJWYyo+HgdIHOOhI/vULQdv7j6rs6Gg8eiruXX2Np0pbSqeu6PlSMV2U3BLqQ48nF1CsCFU/ia9rWkSbuUU6y3dLCxf030XhJXc3iaazN2yZGGuBq3pep2y66mgvqtKOrGQ6LgLo9wfbtgmkp1s15BGTOcFUPIUe1TE9E4/9nXE6ePuUZ6ETLqmT7TubL8oVUvJiy+fJdpF//62jsHedttZL4OuZdV8qsYjxzl/Fa6m/JdkqKk3/OBgQo7fhq9pzgLqPrs8+BFPvicrdo/jmJzI1o+Qz+pI0cG9Zyp9AI2D5e/3h7rhqX02TyYctzR5vVstnV9boSUJ5flEql1JnkB71/KJJE3HZ77RvVkrqa8n6jf1LEPapdicYPtHBhTn9uqCWxsEktG9TTlD+e1NM8hA1HP6fc1VxupiXxsEktq0xLsQq0z7z2VEkIgU6LXMuo/KNepVKhmem5089b+b6jpPwTO+4ZFe5YF0ZSLqYyqrYsK990gHxXojGqZi3vaG7kP3Ad78MypK9WpkLpSV77ZJDz2pE93su8qENcS100ci3LwmbXyLXM2IZh2O4fo7rOG1E/kk5xdMPQiamRbevi/R5YBh8Euj1SPnlQ9w9qmmFXaaTcMjzoJQbDFqoMO9W2f1E320s8nzn4jJfYMy44m/4zXozoGc+kyS08tDQRKX4goa7jKsnOOeQHWtI17jgTr+prCjTMyatml7T/iYkjQzqiyzHherBmSWvPxxpde6SK2glLcyQj2gpHtSzoSvcs4ZQcVcIXh21unrSVazRdiDta6kGN7piEtLT9q6qBY2JD1qXp9qauzFTnKS+clIuT+7Oiq6ZpRuUTES01KmW6btXTrA+t1SlES3s1cI+puc46mz0eZi36AYY/wBx2brtuWXaXfAXtnDz+FS25lF5D+J16iZiTXnCq/XR9dnWnGpez6eVDZBs0M1w8I1vwGpA5Yr1dLSY5qeNGmuauab8t9iRV6Dj05yiqRL7gbZuadOajVtemOu8Ncy5UQidHGPI9vntMvYHXkHEhC6V+nktjHpT1/O2PW+Yb7d9EGE5yLVurab6pjAdBS6M/Yud1dEk77iGz5z+jju3ERFroNeViCm3Kyk9gM08wHgwhmNwtuAtqWslHffrXexPo4jZw8qthWkqLsCV3wdcyK7wGQgTvirv10sIdoBUD4OUwBqgl/Z5jwQJuYwvjdDY7UdTkA10y3tOkZi0QnL8aqqWc9+uRFvi3k/axLZeldLXfdIpkkRtRWh+HfiuoEZkX6pKJvn2iOrwgX4umaU6lzaqHXTYIRJf4mkVAZbmiFgWQlgmbTGf8P6KlLjvjdMRIu0/GpOUO+bsfGLUykJaV4AOSqBiBWxYG9RSlsveIP1C2YPyXe5q1wNbh1wJqSdYVgz+ikJZk4LXlKoO9Gs10yg2PWyAt6TXKiXVVilDIRjZTqnpzZ0KqTvIIKFX7OxExoJa0EXx5hbRsAWJkV/3OAWNMBNLSCk5t7K7qiTWYBos4/rgUJ46zmMclXUAd9h+kpR06msmfdMY1QhcfQMtxWpqkGUfkTPWdXIhTd74sXsqLD/f3HMF2W+Lz5Rof+jxALTtkmuKOHaDlRAc6PlxpmWCzfj9k2QC0pKky1Zmk87K6tQVk8TBTizjMqZJ795mu46WA4/5qQC3pAsilArQ81IA1wRG05H6U3m5C6R5Ay0JgBHlUdEjhtWlYXaOtXP3tLFWrlTbnX6q1UGLkrjag5ZiKkZNoCVqKcXfaGqkrOqDlETjFdqS7+pL++THIuMfdjrvr61vgfb9X84iWvK+AlhktDK6lnNwwFDUALelCIWf7wpr3ErLuvFUPvpEaJS/TsvO0lokjOY8kufqhWqqrzJNaHiyB/RdB44Tl8l4X3D9B1ONS9F8G+bRwRByakY3LpVkMlr6WXgQkZ3/8KQfK/0cF2NgJmaWenC+NdICu7FePj6q2n90VlipAyxfNl+QHNdQSwyK4x6Xn39EoposwQC3H663j6z0wHcdmQ3YVJgFavmgdp1XZXdnIfmVDTKYNfC3leD9aQC3lMBjyL41n3WNHzUQCWr7Iv1yakJa09CCmOQq/TssjaYxAcU9dnASe5kgRD9By3Iae5r3HJ7kDb8+aupPyi2eUfxki49dgmmu3+fmAWlJPeyD+B8XjzygfEO1XKQZASxqPq8PmqXj8dGomH9S3wgEjewlVMwIvVkUIqCXJUqR5vAJpSfsYnlRTkfz4KPNEbxbA1irASPPbeni6JQJALQ1piEBaNh5/9gKQu9P1/4W0pGut3NlGMOX8UoZ1zciuXe54EZCWI3nCh7Skcq+/iyUvP8CQlkoGmkBugfqrTr8tGbFMw6BlXn9mAbWsAqMoHJosWd0xcEmlWVNxJR9oYUsc+MMZ6xs3A6udWavk2E5e6QGoZYYMTEMOcDMOL/FUq9JgokVKx/+frNnCdg0KbcrqiR7oIcNyeTmdBWZEzxjY/LecTmex/UARr+nq1mjs+dI7DgujV4UvUEuarXTHGtu1NRnPj62uHwOmNb3eHGQOyZE9ui1htfQwbbPe2nWYGfCPptpp9SOvJYdzlh0Jzpbe75AEIkfPQzfVX8Fb7np7VeN6kScjhMxty6rzvwX3GNbSTwR1rXw+b7E7wJ9Qdsyw67b/BcKEwKsH7mFDeASO/ZbUbe4RAo4XuKEKMr6ZRrn16klELQVEnzlES/6qlwSbAx3gkDS+LOCihD/YBYDl7T3d6Kck0YHaWeJnEjBuDraOy7vS5Pddw7RMDI2wrjuBO2TIy1RPTMgJZcKBfKEBRo/kbSdTSauRV0aVF0b3iXE3rv3o3CcqtHxhjLw823v7Lw31Ry0InWp6tUFON+xqgacvxqNWVziUrqqFik7LP6yLj/HhsO0fMJrw/svTpGmaD8osuEgWzSJkjO9lvZV/eUi2+LaajtrtyY5HyPXzXDXbamX7x7mC+k5ewzlueseqOdCnbwz73sHhSA3r5kP3smx/qOYyV3z5cBLMALvG4Av2oHFTRFcEQFDL6EAtowO1jA7UMjpQy+hALaMDtYwO1DI6UMvoyNje247R/ozI/5aMx/oFRQRBEARBEARBEARBEARBEARBEARBEARBEARBEARBfjf+A5mAvqMR9QE4AAAAAElFTkSuQmCC" vertex="1" parent="1">
          <mxGeometry x="520" y="790" width="219.94" height="101" as="geometry" />
        </mxCell>
        <mxCell id="bvs6TWtCchfrQEZ52sJV-734" value="" style="shape=image;verticalLabelPosition=bottom;verticalAlign=top;imageAspect=0;aspect=fixed;image=data:image/png,iVBORw0KGgoAAAANSUhEUgAAAOEAAADhCAMAAAAJbSJIAAAAe1BMVEX///8AAAABAQGioqL8/Pzm5ubr6+vX19dsbGz19fXt7e1gYGArKytPT09JSUmtra0VFRVbW1u6urpUVFSPj4/Nzc3e3t6ZmZnJyck8PDxCQkIlJSW0tLRmZmaDg4MODg41NTUcHBx2dnaCgoKLi4udnZ0hISFxcXExMTGM+6S6AAAKCUlEQVR4nO2dC3uiOhCGGRhExCsCgjcUtPb//8KTGxCQtqeuyiabb5/tClI2r7nNDMloge6yhi7Ay/UPEDq6yzIyMjIyMjIyMjIyMjIyMjIyMjIyMjIyMvqHhYhDF8HoD+Ud46GL8Fq5W5glQxfihUIrzGEXDl2Ml8pf5YfR0IV4utCXDtyFO1hBXiX/Gunc80jXWwAc/Z8vVFZolQDjCXnl0R+WG+pGi1YCsCD/OLuANNZkfh7rhkg6Ih1b/CnA1bIWOZw0nfJxBucFIVzqSMhniziIfNSTEJ1LSv0JZAPrEjLNCNGKxVhqaUiIVHQ+HFNDLZlYVStF/o4u2nPC6BR4bKTJvKFL9Dy5i/1+H5aMsJotljDdhEzq26eIc76M1RaE9oYRVlqq70URY8Zm6hDa4uxF8Z6IVkRYeutQnA2Ub6fburZahHZ19jMduoR/JLRG0E9YnyUGucpCOkt8S2jDbTJ0Kf9MN9LVWoRitmgIT2r7/n7WoAjCVTI5NICkmao8X6AVfnQJbTaI2o0Uj25E+V0/hDYgaaYqd0SU2mNF2BVAbKk763vbnwltiBQmXJylIUWMNMJMrU/bsB26mI8LL9Cpwx3kh2hzO7cYQd2O6AZSo6SEk0xYMOFUZneUbabpZ4fQn1Q+/ySQCA/KEi6gQ0inSD9hkQx33RDuhi7oo5qU94RWfJxvC+pPNMYAQKJoJSazlu1CCJHNHwC7mHTSaq4EHvBXUfHynvDGTsGMvB1VhDYUihLuoUtoWfQUQToTh8LJa8L10EV9SOiXbfuzJiSvlxIhNU1dFSsRR7M7QrT4DMnMmE0do4Kpmqap+9lD6H1WMcTRuCE874cu7ENyz/etFK30tt0e9tR1nDazRb4ZurAPKbF7+iGxZuKYVuZIdqzgMnRhH5IH962U29ikz/mFDAjlwGV9TN59HU5WosOls5a5QyZEFeUu7wiJ97QtHecyz9tTpZqESMfSrm/ReMCtKoTj0KV9RDha39dhXxRD3bHUP95ZbVU0sUt4VjS0f2+X9tehDVNPSZvGiqf/i5BU6lzRoLA7bhEeXDqW9hKq6j11ohh5lBTQ7YOsG6obE07W7Vmvj88W/rCiuubtCaOPj5CnqlYh6Ymr/lprE96GLuafSHq69iVgpvYj0utPlQgfobptlAqL7wkhd5TmI/LHbTO7hUdGmY3qgNw8/YpQWYO0LXSmvYgEfKv2cqFG6eHOn2AxxGKk9iAjyXXm3fUJsByHuuAxeZtMHnEAxnvd9nZh4nw2IeAg1Y2PCr0Vb6oAjqL+4A9CunfU5ssRteqBjZBuB6LOvrprL34UZqD4Ur0fhNaFPg5V25f4QTFovtPSQmBLaHXWEpZqPg3939rCVOOBhg41Y8h08Sd6hdYR5hrt6boXWhtYaT1ZoOVosA3oO9GdlhpmxJBE99DobJVaSAlvvraeBd3GjSXMYvJKo/2/jXCS7A9s22EWeSPtbFN0Y+fQ7I2FbZR6OvVHP3ZWUG0brV5kRw22OVeapPt9eKd9qI9188W4otVwg33SddbQRaZ6VFcSLkKdnSRMVznAWuNoRZKxaV3bcAXSfZXs8YSai7d/Fvpb/qBQW28e/XlF+FRv3ud65i0fFGLEd/48d/E23g7j8TiInnnPh5XwtELbpxrWKNyuZ97zYWFMXcHDc/OVIR++/paFmm6cxk8eZv4ywhfIEKovQ/hmdTIi1of1uS/CGr0v+WFN+D7P84fSfqFJ4iXuN4bJxCUX9EZT312HDItaUSwpaRsSYxZZS8VZP2ahtZQUO96MV+t1UGx6jAFydeJcyPuz1aHcpH77jmHICTN+o9cJEyrPp05gVASr1Wp8WUw69Tgaf0yn010gQr5udeiWpypgml268WC0knJbx4ztU7CX7jq57fgaVcg/d6uXBiE9WtjpObSc7bmK7y4/y/bsPmLhX5hVhAE7XIUzaJbu0T1CbTknOaELuW3Q1BXdNFynmHjtQ2SPQ41PdaYg/iKSWw4htNuE9DCv91Xy2HcbcVTcpR6CXe1CE8KG/eWEdpXpsf5U6d9D0jRURmi3COvroPk1aZE+utV6d+mTs2FarbGVCO23ENpig48oDfs7a/7ffkJ2+XSb7UDkxpg3legX/DY07Um2/cyrS6pAyCiQWulzfZYvCTnectnUSVNgSmjfE5J2ew3jNGSrheXtTlglkAD7cA3TOFwcT+KECBNMipP4pXzL8vS+g5A+BqSTwLVKhwSHqtV91UoPvGgYnviJTTXLeFXGk+pLIfz4IFoH346BSRxzwq0Xey+dLZpWmm8S9j+hm54FgfM94akeOI68I998QXhgfRAglvrymCPu6pbxphm/IiQft1QaliuQfL4CqZcQoBCfPVrhmRHOxIkk71k6PMpERVdN+a2EZOi/ylZbsgT5ZD9h7tR34VlPRMJEuuiUAa9bpizdgMrGUxyGMJD7AqLDTx/42X5CacUesngjTMUF/HLoBpA/+GmRJeuthGQM7axFTzIxDLCj3rG0lWd+LhOK9e3TtpGDIrkr7AcgtOGzY3JN+Hy240tH++tQnqglQrS8EztaT1ofGlrXVkd8M+G8c5o306qr9dfhTPpU5rzWOGHMe+W4S7jnhMd3EiIjJH9W3Xf23CDh6S3663DdJgSZkKX77hKGnLAchDDovhM+TGjRVspSl3cJF5zw8v5W2pdf7fE6JO9n7GjbfsrBdy6Q31sMQph1TuOVEUr98BeEuObTQtfcnFWTyBAjzbRTmtFNnvJ+R8i+Cwok60XIFaZ2ZQm9dz7sZszxWDohmPNn978lDHnD+JCnIMbNrIhBrDYymLZKg9z7gRsvTP9sse6fLSy+G4rNF/IaIp6rQHKx3m2XRvU6WBR5yZmlUxP+oh/SHCjctyhHPLZKfu5PYtSurnlzHRLfwsH6q3BSnlenzqPza0KcC/9rveCn4mLHgZa1sfpuQrqRVyyYwc1SlK9K//BrQvZFJryDT2fjIsjO0HKAByGks9+p3FyPszpyVFbt9vd1aKXLJlAlBaPKxoV5fx025RHAjZ3z+zpEGtlowmnijnkphY3fPdLYtrTznDfapjS/HUuZ0pUcLmVNpLUf+s2E7aSA1G+KpNK6a76oQJhhLg+BS8FDi6VLhnMrsp9sMtEm+JtF2yN+10oFYbUdL3X7ZC+C1ndS+otLFEWXqgr4YSTXiMMuuLbqyELPCc6cI59t0s6DDaT3iC4vzxQiCBd+Wn7Ug8ItHbUfPnUW99yv9fli9Q+OkjhcLPZp3wM4/isvf3pYEZKxwfecY1EcnXjy3PjlwKu/JcLm5FPLNPQX6jWEVWF0W+7cItRSYrbQnFD/OjSEasvjZpXuhBqn0CFWdFGURXnT6Mt8jYyMjIyMjIyMjIyMjIyMjIyMjIyMjIyMjIyMjIyMjIyeK0d3WaC7DKH6+g/UR4wetvWECgAAAABJRU5ErkJggg==" vertex="1" parent="1">
          <mxGeometry x="315" y="791" width="100" height="100" as="geometry" />
        </mxCell>
        <mxCell id="bvs6TWtCchfrQEZ52sJV-735" value="" style="shape=image;verticalLabelPosition=bottom;verticalAlign=top;imageAspect=0;aspect=fixed;image=data:image/png,iVBORw0KGgoAAAANSUhEUgAAAT4AAACfCAMAAABX0UX9AAAAz1BMVEX///9ISEggp8k4ODhDQ0NFRUU+Pj40NDQ6OjoyMjJAQEBOTk7R0dHZ2dl7e3v7+/vn5+fx8fHDw8NxcXGTk5NVVVXd3d2Kioqurq67u7v19fVfX1/h4eGmpqaBgYHMzMxra2tKQDwAoMWYmJgdrM++vr6enp5iYmJJQ0AnJyepqak3eIsiosI1fJB/h4oZmLehydYtkKpIqcWw0Ns8a3pzuM1DWF/c7fLF4Oip1eM1S1I/Ym1bs83A2+Mxhp1FUVRPZ26Lyt4sj6qBu8wdHR1KGW3+AAAPJUlEQVR4nO1daWOjOBKFCB2AwWDA+DaJ2yT2ZLZnZufanXum//9vWnSAwZaAOBdkeV/abVty9ChVlUqlkqYNGDBgwIABAwYMGDBgwIABAwYMGDBgwIABPcXY287WaRhvwt16Plpc2Yu/naW7eBOH6Xp/dSd9w2K7uyeYIGQxIASAHs/9J/biz2MdANqJQTshABub4+pV/uAOYTxxAbGgXgW0kHk/a8/geB/gy14MhPXQecU//r3hhRYxdDkgIpt20uOnhqoXaOFo/sqDeC/4G2ApuOOwcNBM4CIkqK4TSIzjGwzmzbHD9eSx+Wf+q8EEHElzL8SevM2Q3g4jvVZmcjx8vvumphcnIm16gTj4WIZ4h88VvRS33366ufvOU/UStuslg2Vt33J4r4tF0kpo9NuvP91kuPu3tBcvaiXAHNBcv/EgXw2+3ayvKB6+Z+xl/P0g6WUP2ooeB4jffKCvAs9oN+6HHwV7GX+PF7prh59EXgayeY/RvjT8luxB/aaEx5+qvQTtpv+H429st5xzD5/L9N3c/VzuZNlu+p/zF77bsF8KQcuB3/796abK33+KPnxdtVZpAO77EiRtOemE0ZXy11Z5yvhTOkG9gGO2G2ZhdCX8+RfBgfaA0TsT8DxEbY3uJXk5f21Njxykz+7fsa29fJTSR+3HQn8Oe5n799RIYncwbrlMuP0sZ4/yt7zSauSw+uu9pO3ou/1dovg4Pv33mezputlb69HAHjSYWrv9Ss3eLw8N5Ig+amD1dfE2q9F8BsEgcd0g++cXNXtf3dYRQ/sIXDchWBnDpsA9DV4tlXJhme5EqHRv/uudir3f69izzGAv+vC3G1PtnaPZ+1HwDHjKRb4ZV8zhTwoCP9ewB81NRactQlP1sODybcf9QlgrVB9EF9thP8scl8cavYeii12Rla2awf1cetzLxQHqMk/sh0sB/EPNnrmTdLFQ+TikjyvfhWLuIrkf+80ZfzVGF2L5VtACyh+Y4b7mOF8JIyAdC1ZtQvxW4a/G6EI0VXShWGH3cuE7k6q+Gkn4ucRfjdGFUK3KNnL720fP2ZVqIqySHK3Cn9roylWngCcXP9DD1I1ApojgfV2Tgr9HpccIUa0kJdKGffT85AOpjx/l+k9tdEF9GsdcqjEafrWTkBpeMKpvxOxvjdHFDe0dqb2y+rfnMZaqoQbh0bR/7uqMbuPexVj60Iz+Ba3kbh9ubPdrjdElaWPzp5r7rsKXT97mht8qZ+7Dn82tpRrXCJ49nLeGXPqa6fPUK90/bv5qbP5RpO9K3bdQ76o/PJb3fhW/Kn1ofYyYSm1gk+XV7pVxO5q8dnP3W33zqdzyyiIMHYd0j7LJAwuU8X2xIVLJ3bjEx/H7pIu2+lWH5irZOyWv1fInX3X0MWIVS6dh3ZpX2yg3R8rJazX8+Yo1bw8PfEykXNQZQbdma6kUy6rhT/7IerlZNJWHS5XxvsW9el+zmrymtL+qeF+9xugoVKFzecBpWpOEdp68dif3/1TR5j76LZkVlfMBoYy/dU3m8mXy2t13P1124UeKBwB6mWU/V6gySC62KpxljdqrS14rYQRV4mv1UPWpVgAUOKjYXyeoO69RMroV/m4qBHobZR89XLIxyMP1bET4/uiwOew76wjXpwEpktcyAv/Zsj4Wziyp6aOfczebTjVnCSACwM5AAKpP8XlQJq/d3MA2fUD9vXm4FuokFz4wqDCVJVxkjJ/w6ceHNn2QHm50cEzkW71PAKpJXvu+KXmNwxq/Nw1Xo0H8GgF2f92p2Pv6tlUX/RW+zKY++SRVdeiZv/urgr2/27EH7ffm4DmIn3AI8pI95nHIs9c+t5u5utnDHfITWh/JUrIn5++xZb496t8WZQVtz8VI2Ct2Fy/nLzO6LWD0MzOyhNmV6q98HPdc/pozxjmgIhmuTwiv8l7MypbuPxX+GjLGT8C9VnwC6hiyGoez8Ho5ebI+Y7zMXk9Xa2eInyp/kFxmP5/4a210PwZ7mpY+zX6gSKKy/O/ucqPb7hH0MalPgX3rCiL0yIHC2RAK8I9WwoeW/bcaJ3h18dDquKFyzk0f71oaXeUj6C3WLWow0SpMYd0K/5u7VkaX2E3JDP2D7zaERemJg6RhR9bfND8FRD5kDTBt5eK6uKaFkxZC423qg6PEWvc3QtUAP7WxvDKBQcimLgGh3Mla2QnCyf51R/DemKYRIKh8CBdaCBB3/xSZme7srJNSnBmyToInVKDsLxaTmRtBBDDIgGAUz69w0fzJMbEtQrvABOnL8JpOeoyx72Xwn6eoFrQPr5f7uAMGDBjQAuPFh3Xnno/FqKlqevylp6kqb4H14TxAeo7wIxQzfC1EhpHUf2OgT42pmUSs3kUaLtabI9Vy/jEO2RLYiYN4ROmLV/Fmy9/ZHAdXr4QYz9eYbg4ZSM8WI0tN25qmDcxM4I4mtrF51EIUmYQcMv52JjbMD7CH9nJApr8yaTqFjdaab4G55kZzzSEHf2GSreYcDhl9yVjboERzTLTSdh+lrPBLYIKDTP3RfAobsHlKjaw32iLgzQnKXo9GWkgJ22eCmaJosk9Rb7P2Xh6BFaRpgmJKXzY7ZyDQZtbBtiHwZkTwxOibZ/SFFjwcDrjF0db/E/jYwKaJIRHSlxLXN+kLALwJoDxNJif6UrLUxhne+6/uDI6ZtGV0LMFes61wsTLwfmoSZ5wisNIstBvPDuRE38okqe99uIt1vMkuDMPd5OklZ/QDO6mwPiw1G+qHg5lo2j02v8Qg+8CxzMMBOVp8yMzw/BDRXc/snS89PCSpxuIYYcKubiJ4+cR8zvF2y2aiv91S3bdNmXM32WUWd7uiH6/p56tR9trbUlfQn6dXPKQOY4ZK2zeQ6FenR9iN56VfBp3SnclZEgvE1x7ftg6vlpjibOIMomhiuhwtPc3oBIfiAD1EpLhEDFzJ32T+arNyYlLdYortvFi7X0864TvOuOyB5Xo72qY2z2Y2O7fPz88Xi5PR443mpuGmC9LHcweKAj88HbJ7Z2ir9B211HNmHaCPl40qVVvgR7px1xyzCn3dAa/wik8PkhfAIa23+31Ppu/81WqliKp409MHi+xrnkSIFqvpqtrtltPXNY8n5cJWescGhBCWIuYkboYkD86FQfa/gFkVN3sZBNkwdzoGwDq7X9FPI7r/Dey0IGq6TDK4GQ0RxgdO2GK95Nvkydk0nLH3geXmdnwTuLwSLaS/2yW9zAvT45KkTOYU9G8cmUYGM/8sQNn/ENuz0K3sJR5PLe4wWpWEvHWeSgQRzpWCY0IIrUibmzA/KnQsMo4gKZ+9GulEvG+AJZe2yMrTQmD2s126RHDLdJ/8zDEv/1pQy47n82+y4zJocvK2yakDt+xGAvE+U7EwWpmFXQoq3iYoynzNywWwDcLkulKTh3Qp6XnM80bRvSRBqoE+nc77XCxALj95Jr74QNzXxC2UzaYgq8cXEy6fQNxaSUQAdSsSqUUCEYR0XndX+vLriCAOLp5qE306BMiNROIz4fprws/REJh/wD1dURcSUgLoFTAr9jXDnk1H4go3k8nZWGgDHCQmc6nYuaxM9/ECQzBxgzZphG+IyMo1DQknFR3eRB+MaFqUx8t9I34Shn/CJGTKJIjvweVlNRFIAhqUYBZLVGRmM1q3WPsQFSK74Ld0CdXLq4N1zvLSW9SKvG+LmG4pUayBPqhzsscWn2b09Z41EW4PFzHWXtAH8sRbJkx5TY4Y0FgP7ZjXvcvrHXINy5vwDkDLHMw3xbGUcWzgZfEnNpmOXN1x35GdxGDfKU7hMlXHKngJ77xIW2YnrZFY6kziMAP9jFc/yYv8s9LbYgHUYfo0Py5dmAHNfBusLX28dBflhl9vZOUn2tgUZVWA+OhPlx9wmi9qYLPqHUWV9RGfFux1l+mjni4CRcYxsvmw2tLHHQs65fggs0k5ZvsZTHyYoT2nj19Fkz2palIp69eIRXO+0uC/3236Mox2UT6JDZtptdb0caFZFnXXkMnBZJG1OKdPE9dzWMCM4n2RdMCNsCGa8856Ql8GLxXXtyM2f1vTF+Z2VFa2Tk6fV1zXDS0CxP0z0spF/aEv8xaE18uul3sh+mSTN/ulsr61+Oqu9/QJKri5vJo+BEowqRtySV8mgDuriG/z4+eCPqPcHHzpMH1buoWwqcTm2d/JzGVr+jZV3YeOozLokGX00bfnsS1q15nUCeRrEXfqlMH0cDfpm2O6hVCplsKcNXa5oaAvV+xq+lgT6qBNz9y7Agr62EcJtzCJJkw4TGTf6iR928thMY+2JH1FhFdJH4+wMm+PL0AuK2Cc0eczscr/x2u10XSOjVEoXmkHXaOPB1zK8SperZ5d8sAXXfnagN+AUqYvF7IjX3XQkAO/L+eyaNwZfdsDVYp5wimXWRpz4GWzZPd6TquPsivg4yUn7ZcwAeA3a7BqNfkSbH/y4kRgQFz94nMXhKai5XWbTtc57TkVZ/TxwrL5Rq0IxNOXPDBVRL+00b1QHZ5KLbwvfL6WR/aMjng1s/n045Tx+qVWMvKcrYiCViIuaO14qzkfMuJPgIdJINk5vueMQhvwi5rOdR9fXgSMG98+ifWc/woJts7UGaVLXAQZ+HOx5s62U5m9ex6fZIFLlB+2FWUsRAk6SAAgBq+NW4n36fRgoHB/CR+VLyLtFsCYuSW88O05fXMufsRNU5e3EFvL4i55g54WpM2L8oeinBsCh27pvz04PyYOzXzy3Jc+InwFW442l2LoOG8yOr9t0jwFrEomaiOE2bL4T+TpuuPo7Lx5vgM9z4P7XavB7gWVc/aQ6EU43DPywUBzwtRPiT5rV9wrWU6Lcaxy3TXDjKmGu3RcdpU9jdNe0zgoFzE2cJK3WYpuO6f/NMdlZ5wzGAjb5Qw1P8EW3SMDtDwDQQjxPR3huCzu2acGscrbwuOQTjvWWXHI3DlkbdGh7CA5Cc5/00zKgZe5DljzbDFc3kEYuyZ7u4tp5ePJOlhG0XJzPNcszi57f8PkcUbBXhV+3yiMosidn+10L+ab7O0oWBfBf39Gdz9nVa2/Wgf0a+7s3Jve0t+MknRf/b5DfyxZd0v3XYOzVceAp2Gg71kY6HsWBvqehYG+Z2Gg71kY6HsWdJq5Bgb6rkRAkXRs8TlgwIABAwYMGDBgwIABAwYMGPAS+B97x/nJ2TlxngAAAABJRU5ErkJggg==" vertex="1" parent="1">
          <mxGeometry x="859" y="778.5" width="248" height="124" as="geometry" />
        </mxCell>
        <mxCell id="bvs6TWtCchfrQEZ52sJV-736" style="edgeStyle=orthogonalEdgeStyle;rounded=0;orthogonalLoop=1;jettySize=auto;html=1;fontColor=#6666FF;strokeColor=#000000;strokeWidth=2;entryX=0;entryY=0.5;entryDx=0;entryDy=0;" edge="1" parent="1" source="bvs6TWtCchfrQEZ52sJV-724" target="bvs6TWtCchfrQEZ52sJV-734">
          <mxGeometry relative="1" as="geometry">
            <mxPoint x="200" y="550" as="sourcePoint" />
            <mxPoint x="650" y="652" as="targetPoint" />
            <Array as="points">
              <mxPoint x="751" y="620" />
              <mxPoint x="100" y="620" />
              <mxPoint x="100" y="841" />
            </Array>
          </mxGeometry>
        </mxCell>
        <mxCell id="bvs6TWtCchfrQEZ52sJV-737" style="edgeStyle=orthogonalEdgeStyle;rounded=0;orthogonalLoop=1;jettySize=auto;html=1;fontColor=#6666FF;strokeColor=#000000;strokeWidth=2;exitX=1;exitY=0.5;exitDx=0;exitDy=0;entryX=0;entryY=0.5;entryDx=0;entryDy=0;" edge="1" parent="1" source="bvs6TWtCchfrQEZ52sJV-734" target="bvs6TWtCchfrQEZ52sJV-733">
          <mxGeometry relative="1" as="geometry">
            <mxPoint x="761" y="618" as="sourcePoint" />
            <mxPoint x="325" y="851" as="targetPoint" />
            <Array as="points">
              <mxPoint x="450" y="841" />
            </Array>
          </mxGeometry>
        </mxCell>
        <mxCell id="bvs6TWtCchfrQEZ52sJV-738" style="edgeStyle=orthogonalEdgeStyle;rounded=0;orthogonalLoop=1;jettySize=auto;html=1;fontColor=#6666FF;strokeColor=#000000;strokeWidth=2;exitX=1;exitY=0.5;exitDx=0;exitDy=0;entryX=0;entryY=0.5;entryDx=0;entryDy=0;" edge="1" parent="1" target="bvs6TWtCchfrQEZ52sJV-735">
          <mxGeometry relative="1" as="geometry">
            <mxPoint x="739.94" y="840.5" as="sourcePoint" />
            <mxPoint x="844.94" y="840" as="targetPoint" />
            <Array as="points" />
          </mxGeometry>
        </mxCell>
        <mxCell id="bvs6TWtCchfrQEZ52sJV-739" value="AI" style="text;html=1;resizable=0;autosize=1;align=center;verticalAlign=middle;points=[];fillColor=none;strokeColor=none;rounded=0;" vertex="1" parent="1">
          <mxGeometry x="1394" y="882.5" width="30" height="20" as="geometry" />
        </mxCell>
      </root>
    </mxGraphModel>
  </diagram>
</mxfile>
